<svg width="61" height="12" viewBox="0 0 61 12" xmlns="http://www.w3.org/2000/svg">
<path d="M7.51221 0.757812H0.193359V10H1.40576V1.88135H6.2998V10H7.51221V0.757812ZM12.4507 10.1587C14.4185 10.1587 15.7769 8.71777 15.7769 6.80078C15.7769 4.87744 14.4185 3.43652 12.4507 3.43652C10.4893 3.43652 9.12451 4.87744 9.12451 6.80078C9.12451 8.71777 10.4893 10.1587 12.4507 10.1587ZM12.4507 9.13037C11.1621 9.13037 10.2988 8.12744 10.2988 6.80078C10.2988 5.45508 11.1621 4.47119 12.4507 4.47119C13.7456 4.47119 14.6025 5.45508 14.6025 6.80078C14.6025 8.12744 13.7456 9.13037 12.4507 9.13037ZM17.167 8.93994H16.4814V11.7139H17.5605V10H22.7529V11.7139H23.832V8.93994H22.7783V3.60156H18.0684V4.65527C18.0684 7.38477 17.6875 8.56543 17.167 8.93994ZM21.623 4.65527V8.93994H18.3032C18.7666 8.521 19.1348 7.2832 19.1348 4.89014V4.65527H21.623ZM30.9414 3.60156H25.3872V10H26.5425V4.65527H29.7861V10H30.9414V3.60156ZM34.2231 3.60156H33.0933V10H34.2231L37.7271 5.31543V10H38.8569V3.60156H37.7271L34.2231 8.29883V3.60156ZM43.7446 10.1587C45.249 10.1587 46.1885 9.25732 46.4805 8.57812L45.5728 8.00684C45.3633 8.48926 44.7285 9.13037 43.7446 9.13037C42.4751 9.13037 41.6436 8.12744 41.6436 6.80078C41.6436 5.45508 42.4751 4.47119 43.7446 4.47119C44.7285 4.47119 45.3696 5.10596 45.5854 5.58203L46.4805 5.02344C46.1885 4.33789 45.2427 3.43652 43.7446 3.43652C41.8086 3.43652 40.4692 4.87744 40.4692 6.80078C40.4692 8.71777 41.8086 10.1587 43.7446 10.1587ZM49.1909 3.60156H48.0356V10H49.1909V7.1626H49.8955L52.3647 10H53.8818L50.8667 6.66113L53.7231 3.60156H52.2314L49.8828 6.19775H49.1909V3.60156ZM56.6558 10.1587C57.8301 10.1587 58.6108 9.51123 58.8711 8.99707V10H60.0327V6.02002C60.0327 4.43311 59.0171 3.43652 57.354 3.43652C55.7988 3.43652 54.8721 4.24268 54.6055 4.85205L55.5322 5.41699C55.7163 5.01709 56.332 4.48389 57.3286 4.48389C58.3062 4.48389 58.8711 5.08691 58.8711 5.98193V6.36914C58.5918 6.22949 57.9126 6.04541 57.062 6.04541C55.3862 6.04541 54.4658 6.92773 54.4658 8.16553C54.4658 9.37158 55.3101 10.1587 56.6558 10.1587ZM56.8208 9.16846C56.1162 9.16846 55.6528 8.7876 55.6528 8.16553C55.6528 7.4165 56.2178 6.95312 57.2207 6.95312C58.0205 6.95312 58.6362 7.14355 58.8711 7.2832V7.47998C58.8711 8.19092 58.0142 9.16846 56.8208 9.16846Z" fill="#F8104D"/>
</svg>
